name rise42.5664peak47.7979fall81.9185.mot
datacolumns 19
datarows 18
range 13.94994600000000 13.97827900000000
endheader
time	ground_force1_vx	ground_force1_vy	ground_force1_vz	ground_force1_px	ground_force1_py	ground_force1_pz	ground_force2_vx	ground_force2_vy	ground_force2_vz	ground_force2_px	ground_force2_py	ground_force2_pz	ground_torque1_x	ground_torque1_y	ground_torque1_z	ground_torque2_x	ground_torque2_y	ground_torque2_z	
13.94994600000000	54.86610300000000	778.91512899999998	52.18263800000000	0.28447600000000	0.00000000000000	0.10675800000000	0.00000000000000	0.00000000000000	0.00000000000000	0.00000000000000	0.00000000000000	0.00000000000000	0.00000000000000	16.98522400000000	0.00000000000000	0.00000000000000	0.00000000000000	0.00000000000000	
13.95161100000000	54.16743800000000	782.37922200000003	52.35557700000000	0.28357500000000	0.00000000000000	0.10677100000000	0.00000000000000	0.00000000000000	0.00000000000000	0.00000000000000	0.00000000000000	0.00000000000000	0.00000000000000	17.09297300000000	0.00000000000000	0.00000000000000	0.00000000000000	0.00000000000000	
13.95327600000000	53.46321100000000	785.67253400000004	52.52703700000000	0.28269100000000	0.00000000000000	0.10678700000000	0.00000000000000	0.00000000000000	0.00000000000000	0.00000000000000	0.00000000000000	0.00000000000000	0.00000000000000	17.20163700000000	0.00000000000000	0.00000000000000	0.00000000000000	0.00000000000000	
13.95495300000000	52.75424600000000	788.79233599999998	52.69699400000000	0.28182300000000	0.00000000000000	0.10680300000000	0.00000000000000	0.00000000000000	0.00000000000000	0.00000000000000	0.00000000000000	0.00000000000000	0.00000000000000	17.31108000000000	0.00000000000000	0.00000000000000	0.00000000000000	0.00000000000000	
13.95661700000000	52.04130900000000	791.73612300000002	52.86535300000000	0.28097000000000	0.00000000000000	0.10682100000000	0.00000000000000	0.00000000000000	0.00000000000000	0.00000000000000	0.00000000000000	0.00000000000000	0.00000000000000	17.42113000000000	0.00000000000000	0.00000000000000	0.00000000000000	0.00000000000000	
13.95828000000000	51.32510500000000	794.50162599999999	53.03194800000000	0.28012900000000	0.00000000000000	0.10684000000000	0.00000000000000	0.00000000000000	0.00000000000000	0.00000000000000	0.00000000000000	0.00000000000000	0.00000000000000	17.53157800000000	0.00000000000000	0.00000000000000	0.00000000000000	0.00000000000000	
13.95994500000000	50.60628100000000	797.08683099999996	53.19654700000000	0.27929900000000	0.00000000000000	0.10686100000000	0.00000000000000	0.00000000000000	0.00000000000000	0.00000000000000	0.00000000000000	0.00000000000000	0.00000000000000	17.64218000000000	0.00000000000000	0.00000000000000	0.00000000000000	0.00000000000000	
13.96160900000000	49.88542800000000	799.48998400000005	53.35885100000000	0.27847900000000	0.00000000000000	0.10688400000000	0.00000000000000	0.00000000000000	0.00000000000000	0.00000000000000	0.00000000000000	0.00000000000000	0.00000000000000	17.75266200000000	0.00000000000000	0.00000000000000	0.00000000000000	0.00000000000000	
13.96328300000000	49.16308300000000	801.70960800000000	53.51850500000000	0.27766600000000	0.00000000000000	0.10690800000000	0.00000000000000	0.00000000000000	0.00000000000000	0.00000000000000	0.00000000000000	0.00000000000000	0.00000000000000	17.86272300000000	0.00000000000000	0.00000000000000	0.00000000000000	0.00000000000000	
13.96494800000000	48.43973200000000	803.74451399999998	53.67509900000000	0.27685900000000	0.00000000000000	0.10693400000000	0.00000000000000	0.00000000000000	0.00000000000000	0.00000000000000	0.00000000000000	0.00000000000000	0.00000000000000	17.97203300000000	0.00000000000000	0.00000000000000	0.00000000000000	0.00000000000000	
13.96661400000000	47.71581000000000	805.59380599999997	53.82817100000000	0.27605700000000	0.00000000000000	0.10696200000000	0.00000000000000	0.00000000000000	0.00000000000000	0.00000000000000	0.00000000000000	0.00000000000000	0.00000000000000	18.08024100000000	0.00000000000000	0.00000000000000	0.00000000000000	0.00000000000000	
13.96828100000000	46.99170800000000	807.25689299999999	53.97721700000000	0.27525700000000	0.00000000000000	0.10699200000000	0.00000000000000	0.00000000000000	0.00000000000000	0.00000000000000	0.00000000000000	0.00000000000000	0.00000000000000	18.18697500000000	0.00000000000000	0.00000000000000	0.00000000000000	0.00000000000000	
13.96994200000000	46.26776900000000	808.73349700000006	54.12169100000000	0.27445700000000	0.00000000000000	0.10702400000000	0.00000000000000	0.00000000000000	0.00000000000000	0.00000000000000	0.00000000000000	0.00000000000000	0.00000000000000	18.29184500000000	0.00000000000000	0.00000000000000	0.00000000000000	0.00000000000000	
13.97161000000000	45.54430000000000	810.02365299999997	54.26101600000000	0.27365600000000	0.00000000000000	0.10705700000000	0.00000000000000	0.00000000000000	0.00000000000000	0.00000000000000	0.00000000000000	0.00000000000000	0.00000000000000	18.39445000000000	0.00000000000000	0.00000000000000	0.00000000000000	0.00000000000000	
13.97328000000000	44.82156800000000	811.12771999999995	54.39458400000000	0.27285200000000	0.00000000000000	0.10709300000000	0.00000000000000	0.00000000000000	0.00000000000000	0.00000000000000	0.00000000000000	0.00000000000000	0.00000000000000	18.49437500000000	0.00000000000000	0.00000000000000	0.00000000000000	0.00000000000000	
13.97495000000000	44.09980500000000	812.04638199999999	54.52176700000000	0.27204200000000	0.00000000000000	0.10713000000000	0.00000000000000	0.00000000000000	0.00000000000000	0.00000000000000	0.00000000000000	0.00000000000000	0.00000000000000	18.59120100000000	0.00000000000000	0.00000000000000	0.00000000000000	0.00000000000000	
13.97661400000000	43.37921100000000	812.78064800000004	54.64192100000000	0.27122600000000	0.00000000000000	0.10717000000000	0.00000000000000	0.00000000000000	0.00000000000000	0.00000000000000	0.00000000000000	0.00000000000000	0.00000000000000	18.68450400000000	0.00000000000000	0.00000000000000	0.00000000000000	0.00000000000000	
13.97827900000000	42.65996100000000	813.33185400000002	54.75439100000000	0.27040100000000	0.00000000000000	0.10721100000000	0.00000000000000	0.00000000000000	0.00000000000000	0.00000000000000	0.00000000000000	0.00000000000000	0.00000000000000	18.77386100000000	0.00000000000000	0.00000000000000	0.00000000000000	0.00000000000000	
